<svg width="40" height="40" viewBox="0 0 40 40" fill="none" xmlns="http://www.w3.org/2000/svg">
<path d="M6.66675 22.5V21.6667C6.66675 13.3834 12.6367 6.66669 20.0001 6.66669C27.3634 6.66669 33.3334 13.3834 33.3334 21.6667V22.5" stroke="black" stroke-width="2" stroke-linecap="round" stroke-linejoin="round"/>
<path d="M3.33337 29.065V25.9367C3.33349 25.1934 3.58205 24.4714 4.03955 23.8856C4.49705 23.2998 5.13724 22.8836 5.85837 22.7034L6.66671 22.5L8.75671 21.9767C8.90418 21.9397 9.05815 21.9368 9.2069 21.9683C9.35565 21.9997 9.49528 22.0647 9.61515 22.1582C9.73503 22.2517 9.832 22.3714 9.89869 22.508C9.96539 22.6446 10 22.7947 10 22.9467V32.0534C10 32.2054 9.96539 32.3555 9.89869 32.4921C9.832 32.6287 9.73503 32.7484 9.61515 32.8419C9.49528 32.9354 9.35565 33.0004 9.2069 33.0318C9.05815 33.0633 8.90418 33.0604 8.75671 33.0234L5.85671 32.2984C5.13589 32.1178 4.49607 31.7016 4.03889 31.1157C3.58171 30.5299 3.33339 29.8081 3.33337 29.065V29.065Z" stroke="black" stroke-width="2" stroke-linecap="round" stroke-linejoin="round"/>
<path d="M36.6667 29.0649V25.9365C36.6666 25.1932 36.418 24.4713 35.9605 23.8854C35.503 23.2996 34.8628 22.8835 34.1417 22.7032L33.3333 22.4999L31.2417 21.9765C31.0943 21.9398 30.9405 21.9372 30.792 21.9688C30.6434 22.0004 30.504 22.0654 30.3844 22.1589C30.2647 22.2523 30.1679 22.3719 30.1013 22.5083C30.0347 22.6448 30.0001 22.7947 30 22.9465V32.0532C30.0001 32.2051 30.0347 32.3549 30.1013 32.4914C30.1679 32.6279 30.2647 32.7474 30.3844 32.8409C30.504 32.9344 30.6434 32.9994 30.792 33.031C30.9405 33.0626 31.0943 33.0599 31.2417 33.0232L34.1417 32.2982C34.8628 32.118 35.503 31.7018 35.9605 31.116C36.418 30.5301 36.6666 29.8082 36.6667 29.0649Z" stroke="black" stroke-width="2" stroke-linecap="round" stroke-linejoin="round"/>
</svg>
