<svg width="119" height="24" viewBox="0 0 119 24" fill="none" xmlns="http://www.w3.org/2000/svg">
<mask id="mask0_1518:169" style="mask-type:alpha" maskUnits="userSpaceOnUse" x="7" y="0" width="7" height="24">
<path fill-rule="evenodd" clip-rule="evenodd" d="M7.02795 0H13.3495V24H7.02795V0Z" fill="white"/>
</mask>
<g mask="url(#mask0_1518:169)">
<path fill-rule="evenodd" clip-rule="evenodd" d="M8.15354 0V3.3845C10.0173 3.00119 9.02128 1.52985 9.31891 0.603799C10.7433 0.636024 10.3024 1.7673 10.4072 2.66282C10.8062 2.52459 11.1416 2.40841 11.5474 2.26764C11.404 2.048 11.3101 1.90299 11.2137 1.75543C11.892 1.41282 12.2927 1.61889 12.54 2.30071C12.696 2.73151 12.9651 3.11991 13.1336 3.54732C13.6325 4.80834 13.2753 5.66571 11.9741 6.00407C10.8792 6.28901 9.73476 6.3789 8.55765 6.56377V7.64332C10.1263 7.3728 11.6513 7.11075 13.3088 6.82497C13.3088 7.49322 13.3541 8.11906 13.2854 8.73219C13.2611 8.94844 12.9928 9.24864 12.7781 9.31394C11.4275 9.72524 10.0617 10.0797 8.57693 10.4876V11.3679C10.1305 11.1033 11.6715 10.8404 13.3105 10.5614C13.3105 11.2627 13.3566 11.8691 13.2879 12.461C13.2627 12.6789 13.002 12.9817 12.789 13.0453C11.4434 13.4549 10.0802 13.8094 8.68173 14.1918C8.75803 15.0848 9.01206 15.2349 10.0726 14.9389C11.0829 14.6574 12.1108 14.442 13.1244 14.1986C13.5562 15.7539 12.9861 16.9564 11.6312 17.3117C10.6738 17.5628 9.66852 17.6272 8.68592 17.7748C8.83684 18.5431 9.2401 18.8492 10.0391 18.6508C10.7014 18.4871 11.3369 18.2115 11.9892 18.0029C13.0045 17.6781 13.3759 17.98 13.2996 19.068C13.2216 20.1917 12.7169 21.1152 11.9221 21.8742C10.5882 23.1479 8.98775 23.8085 7.02842 24.0002V22.9181C7.02842 16.0677 7.0259 9.21727 7.03261 2.36686C7.03345 1.57819 7.09213 0.78867 7.12399 0H8.15354Z" fill="#0055B8"/>
</g>
<path fill-rule="evenodd" clip-rule="evenodd" d="M30.4956 13.3879C30.4956 10.8049 30.4956 8.42545 30.4947 6.04684C30.4947 5.93241 30.4778 5.81799 30.4718 5.70356C30.3625 3.52941 30.6642 3.19117 32.8123 3.14237C33.5047 3.12639 34.1987 3.12639 34.8885 3.17435C35.4596 3.21389 35.7765 3.56727 35.7715 4.14783C35.7198 9.6219 35.6672 15.0968 35.6003 20.5709C35.5969 20.9318 35.474 21.2911 35.3944 21.7202C33.6199 21.7202 31.8904 21.7455 30.1642 21.6933C29.9075 21.6857 29.5838 21.366 29.4194 21.1094C27.7703 18.5154 26.1569 15.8995 24.5138 13.3013C24.035 12.5432 23.4969 11.8204 22.9868 11.0809C22.9114 11.1154 22.8351 11.149 22.7597 11.1827C22.7597 13.2634 22.7563 15.3433 22.7605 17.4232C22.7631 18.369 22.8283 19.318 22.7766 20.2604C22.7139 21.3853 22.3241 21.7051 21.1937 21.7278C20.5302 21.7412 19.865 21.7799 19.2023 21.7564C18.1363 21.7194 17.8914 21.4627 17.8897 20.3933C17.8837 15.3442 17.8863 10.2959 17.8863 5.24668V3.20043C19.7345 3.20043 21.5242 3.08432 23.2825 3.26606C23.8731 3.3258 24.524 4.0536 24.9053 4.63247C26.6289 7.24834 28.2627 9.91975 29.932 12.5693C30.0786 12.8023 30.243 13.0228 30.4956 13.3879Z" fill="#0055B8"/>
<path fill-rule="evenodd" clip-rule="evenodd" d="M112.813 11.8312L112.987 11.765C112.716 10.8549 112.652 9.80722 112.13 9.06405C110.849 7.23379 108.881 6.85968 106.746 7.2363C104.846 7.57098 103.45 8.97597 103.069 10.8289C102.701 12.608 103.269 14.1631 104.332 15.5639C104.966 16.3993 105.85 16.9471 106.95 16.9295C107.939 16.9135 108.944 16.8489 109.911 16.6569C111.437 16.3541 112.382 15.4112 112.605 13.872C112.703 13.1951 112.746 12.5115 112.813 11.8312ZM108.017 2.38745C113.808 2.49482 117.319 5.43984 118.325 10.6312C119.381 16.08 115.34 21.0642 109.662 21.6748C106.795 21.9835 104.106 21.5104 101.697 19.9083C98.3729 17.6981 96.9527 13.7641 97.9296 9.59442C98.7937 5.90706 101.792 3.25477 105.837 2.62232C106.557 2.50992 107.29 2.46462 108.017 2.38745Z" fill="#0055B8"/>
<path fill-rule="evenodd" clip-rule="evenodd" d="M91.0356 14.8537C90.0583 14.7227 89.1593 14.6303 88.2749 14.4615C88.0686 14.422 87.7721 14.1323 87.7583 13.9417C87.693 13.0306 87.6681 12.1111 87.7119 11.1991C87.7498 10.4249 88.1503 9.91435 89.0364 9.90512C90.8224 9.88748 92.6093 9.81694 94.3944 9.84046C95.755 9.85809 96.0764 10.2343 96.0902 11.572C96.1099 13.6319 96.1443 15.6934 96.134 17.7533C96.1228 19.8224 95.7146 20.3371 93.6802 20.9392C91.0081 21.7294 88.2929 22.0057 85.5228 21.5296C80.2129 20.6176 77.0105 16.4601 77.5675 11.2059C78.1046 6.13387 81.5726 2.85723 86.8396 2.44912C88.6075 2.3114 90.3695 2.37018 92.042 2.98067C92.9067 3.29641 93.7515 3.73643 94.501 4.2621C95.4911 4.95572 95.4576 5.4646 94.6359 6.37236C94.1031 6.96185 93.6321 7.60508 93.1069 8.2013C92.996 8.32726 92.7494 8.43726 92.5938 8.40787C92.0876 8.3113 91.5848 8.17358 91.0974 8.0048C90.1941 7.69158 89.3295 7.21125 88.403 7.0391C86.2061 6.63099 84.2259 7.75624 83.3887 9.77832C82.7072 11.42 82.7072 13.0785 83.4738 14.6933C84.1459 16.1091 85.2908 16.9177 86.9169 16.958C87.8529 16.9816 88.7906 16.9219 89.7274 16.9203C90.3987 16.9194 90.7519 16.6415 90.7975 15.9613C90.8215 15.5968 90.9488 15.2383 91.0356 14.8537Z" fill="#0055B8"/>
<path fill-rule="evenodd" clip-rule="evenodd" d="M58.8127 10.7306C59.882 10.5819 60.8835 10.508 61.852 10.2854C62.4894 10.1393 62.8064 9.59912 62.7123 8.89938C62.6223 8.23072 62.2458 7.74099 61.5886 7.68723C60.6762 7.61247 59.754 7.66791 58.8127 7.66791V10.7306ZM58.8411 15.1041C58.8411 16.5363 58.837 17.903 58.8419 19.2697C58.8502 21.5168 58.6933 21.6848 56.4905 21.7537C56.4062 21.7562 56.3212 21.7596 56.237 21.7612C54.0077 21.799 53.6576 21.4479 53.6576 19.1656C53.6576 14.6118 53.656 10.0589 53.6593 5.50516C53.6609 3.20518 53.6684 3.17242 55.915 3.15814C58.1657 3.14386 60.428 3.06658 62.6606 3.27994C63.7802 3.38663 64.9303 3.93516 65.9145 4.54081C67.2421 5.35899 67.8424 6.68791 67.816 8.32763C67.7474 12.7638 66.1349 14.5572 61.7705 14.9243C60.7971 15.0066 59.8203 15.0453 58.8411 15.1041Z" fill="#0055B8"/>
<path fill-rule="evenodd" clip-rule="evenodd" d="M50.9975 3.86046C51.0564 4.90157 50.586 5.58974 50.021 6.31835C48.9873 7.65259 47.9087 8.11334 46.3332 7.21458C45.5674 6.77826 44.6449 6.77321 43.8501 7.41084C43.4153 7.76041 43.276 8.16557 43.6609 8.57072C44.0002 8.92787 44.4159 9.26732 44.8639 9.44674C45.6488 9.75924 46.4942 9.91086 47.2956 10.1871C49.5556 10.9688 51.1062 12.4176 51.3858 14.9437C51.6463 17.3031 50.4715 19.5386 48.2422 20.6656C45.2953 22.1557 42.3144 22.154 39.3932 20.509C39.2215 20.4121 39.0613 20.2883 38.907 20.1636C37.7878 19.2682 37.7364 18.8622 38.6208 17.715C39.1435 17.0377 39.6695 16.3597 40.2386 15.7246C40.3772 15.5704 40.7157 15.4912 40.9256 15.5393C41.2757 15.6184 41.659 15.7591 41.9186 15.9975C43.0785 17.0681 44.4001 16.9619 45.7458 16.5778C45.9748 16.5121 46.2436 16.1668 46.2793 15.9183C46.339 15.5131 46.4668 15.0448 45.8022 14.83C44.459 14.3954 43.1333 13.8891 41.8348 13.3307C39.0041 12.1135 37.9297 10.2958 38.3122 7.50434C38.6623 4.94705 40.709 2.77133 43.3149 2.49168C44.9004 2.32153 46.5448 2.36281 48.1228 2.59276C49.1076 2.73596 50.0169 3.40813 50.9975 3.86046Z" fill="#0055B8"/>
<path fill-rule="evenodd" clip-rule="evenodd" d="M74.7889 12.6855C74.7889 15.3253 74.7948 17.9642 74.7863 20.6039C74.783 21.6881 74.622 21.8514 73.5295 21.8725C72.6935 21.8885 71.8517 21.9196 71.0234 21.8413C69.9943 21.7454 69.5852 21.2765 69.5835 20.2605C69.5734 15.0105 69.5835 9.75956 69.5742 4.50951C69.5725 3.69385 69.8952 3.28391 70.7532 3.29822C71.6764 3.31421 72.6012 3.23761 73.5235 3.26876C74.5323 3.30243 74.7821 3.58526 74.7855 4.59453C74.7948 7.29152 74.7889 9.98852 74.7889 12.6855Z" fill="#0055B8"/>
<path fill-rule="evenodd" clip-rule="evenodd" d="M5.96116 7.14608C5.97772 8.22517 5.73289 8.5021 4.49483 8.277C3.24196 8.0488 2.0039 7.68833 0.821598 7.25129C0.444343 7.11205 0.268348 6.5435 0 6.17143C0.470481 6.15905 0.962743 6.06313 1.40883 6.14977C2.90043 6.43907 4.37721 6.79335 5.96116 7.14608Z" fill="#0055B8"/>
<path fill-rule="evenodd" clip-rule="evenodd" d="M5.95947 18.6931C2.5673 19.048 0.299793 18.3577 0 16.5474C0.636844 16.648 1.19571 16.7205 1.74591 16.8282C2.67908 17.0099 3.60098 17.3422 4.53849 17.3765C5.78185 17.4225 5.98807 17.5083 5.95947 18.6931Z" fill="#0055B8"/>
<path fill-rule="evenodd" clip-rule="evenodd" d="M0 12.821C0.643826 12.8938 1.14663 12.89 1.60915 13.0136C2.98913 13.3836 4.35233 13.8035 5.85823 14.244C6.06808 14.946 6.03115 15.0771 5.06079 15.0544C3.99055 15.0294 2.901 14.9225 1.86433 14.6905C0.980429 14.4926 0.336603 13.9127 0 12.821Z" fill="#0055B8"/>
<mask id="mask1_1518:169" style="mask-type:alpha" maskUnits="userSpaceOnUse" x="0" y="9" width="6" height="4">
<path fill-rule="evenodd" clip-rule="evenodd" d="M0 9.37402H5.95132V12.3022H0V9.37402Z" fill="white"/>
</mask>
<g mask="url(#mask1_1518:169)">
<path fill-rule="evenodd" clip-rule="evenodd" d="M0.188712 9.37402C2.08886 9.86216 3.98987 10.3503 5.91983 10.8468C6.0578 11.9842 5.7563 12.4705 4.70785 12.2507C3.50439 11.9991 2.31371 11.5632 1.18691 11.0331C0.702289 10.8049 0.389714 10.1379 -0.000366211 9.66933C0.0635116 9.57151 0.126538 9.47277 0.188712 9.37402Z" fill="#0055B8"/>
</g>
<path fill-rule="evenodd" clip-rule="evenodd" d="M5.73264 3.87806C4.45759 3.45204 4.42718 3.28889 4.48956 1.25604C4.52388 0.151031 5.41836 0.755036 5.96192 0.151855C5.87769 1.52961 5.80907 2.64451 5.73264 3.87806Z" fill="#0055B8"/>
<path fill-rule="evenodd" clip-rule="evenodd" d="M3.7262 0.897088V3.13269C3.08466 2.74529 2.28225 2.51001 2.24565 2.1897C2.14932 1.34875 2.76196 0.888584 3.7262 0.897088Z" fill="#0055B8"/>
</svg>
